# xmcd
#
# Track frame offsets:
#	150
#	19598
#	35047
#	50288
#	63654
#	76287
#	90293
#	105861
#	117309
#	119605
#	134960
#	149767
#	165807
#	182519
#	196794
#
# Disc length: 2853 seconds
#
# Revision: 0
# Processed by: cddbd v1.5.2PL0 Copyright (c) Steve Scherf et al.
# Submitted via: dBpowerAMP V4.0
#
DISCID=c70b230f
DTITLE=Leland Martin - Simply Traditional
DYEAR=2002
DGENRE=Country
TTITLE0=Simply Traditional
TTITLE1=Hey Love No Fair
TTITLE2=Freddie's Heart (Duet W/ Freddy Heart)
TTITLE3=If I Had Long Legs(Like Alan Jackson)
TTITLE4=Stone Cold Fingers
TTITLE5=Luckiest Man In The World
TTITLE6=Hand-Me-Downs
TTITLE7=Love Ain't Love
TTITLE8=Intro- Don't  Ya Think
TTITLE9=Don't Ya Think
TTITLE10=There Ain't No Speed Limit
TTITLE11=More Than Friends
TTITLE12=What A Friend We Have In Jesus
TTITLE13=Christmas Wishin'
TTITLE14=Flags On The Christmas Tree
EXTD=
EXTT0=
EXTT1=
EXTT2=
EXTT3=
EXTT4=
EXTT5=
EXTT6=
EXTT7=
EXTT8=
EXTT9=
EXTT10=
EXTT11=
EXTT12=
EXTT13=
EXTT14=
PLAYORDER=
